<svg width="48" height="48" viewBox="0 0 48 48" fill="none" xmlns="http://www.w3.org/2000/svg">
<g opacity="0.48">
<path d="M9.09977 16.1715C9.09977 20.2654 12.4498 23.5461 16.6302 23.5461C20.809 23.5461 24.1606 20.2654 24.1606 16.1715C24.1606 12.0776 20.809 8.79688 16.6302 8.79688C12.4498 8.79688 9.09977 12.0776 9.09977 16.1715Z" fill="url(#paint0_linear_58_11628)"/>
<path d="M28.0109 31.896C28.0109 28.1063 22.7684 27.1581 16.6305 27.1581C10.4592 27.1581 5.25 28.1389 5.25 31.9316C5.25 35.7213 10.4925 36.6694 16.6305 36.6694C22.8018 36.6694 28.0109 35.6886 28.0109 31.896Z" fill="url(#paint1_linear_58_11628)"/>
</g>
<path d="M17.9497 15.6714C17.9497 21.0403 22.3431 25.3428 27.8254 25.3428C33.3057 25.3428 37.7011 21.0403 37.7011 15.6714C37.7011 10.3025 33.3057 6 27.8254 6C22.3431 6 17.9497 10.3025 17.9497 15.6714Z" fill="url(#paint2_linear_58_11628)"/>
<path d="M42.75 36.2938C42.75 31.3238 35.8748 30.0804 27.8252 30.0804C19.7319 30.0804 12.9004 31.3667 12.9004 36.3405C12.9004 41.3105 19.7756 42.5539 27.8252 42.5539C35.9185 42.5539 42.75 41.2677 42.75 36.2938Z" fill="url(#paint3_linear_58_11628)"/>
<path d="M17.9497 15.6714C17.9497 21.0403 22.3431 25.3428 27.8254 25.3428C33.3057 25.3428 37.7011 21.0403 37.7011 15.6714C37.7011 10.3025 33.3057 6 27.8254 6C22.3431 6 17.9497 10.3025 17.9497 15.6714Z" fill="url(#paint4_linear_58_11628)"/>
<path d="M42.75 36.2938C42.75 31.3238 35.8748 30.0804 27.8252 30.0804C19.7319 30.0804 12.9004 31.3667 12.9004 36.3405C12.9004 41.3105 19.7756 42.5539 27.8252 42.5539C35.9185 42.5539 42.75 41.2677 42.75 36.2938Z" fill="url(#paint5_linear_58_11628)"/>
<path opacity="0.04" d="M27.8254 24.8428C22.6093 24.8428 18.4497 20.7543 18.4497 15.6714C18.4497 10.5884 22.6093 6.5 27.8254 6.5C33.0395 6.5 37.2011 10.5885 37.2011 15.6714C37.2011 20.7542 33.0395 24.8428 27.8254 24.8428ZM27.8252 30.5804C31.8391 30.5804 35.5012 30.8923 38.1444 31.7964C39.4631 32.2475 40.4917 32.8341 41.1865 33.5696C41.8701 34.2932 42.25 35.1803 42.25 36.2938C42.25 37.4095 41.8719 38.3006 41.191 39.0288C40.4991 39.7686 39.4743 40.3604 38.1588 40.8167C35.5217 41.7314 31.8601 42.0539 27.8252 42.0539C23.8114 42.0539 20.1492 41.742 17.506 40.8379C16.1873 40.3868 15.1587 39.8002 14.4639 39.0647C13.7804 38.3411 13.4004 37.454 13.4004 36.3405C13.4004 35.2249 13.7785 34.3337 14.4595 33.6055C15.1514 32.8657 16.1761 32.274 17.4917 31.8176C20.1288 30.9029 23.7903 30.5804 27.8252 30.5804Z" stroke="black"/>
<g opacity="0.8">
<path d="M40 43C44.4183 43 48 39.4183 48 35C48 30.5817 44.4183 27 40 27C35.5817 27 32 30.5817 32 35C32 39.4183 35.5817 43 40 43Z" fill="url(#paint6_linear_58_11628)"/>
</g>
<path d="M38.5714 30C38.3939 30 38.25 30.1439 38.25 30.3214V30.9643H37.6072C36.7224 30.9643 36 31.6866 36 32.5714V33.2143H45V32.5714C45 31.6866 44.2776 30.9643 43.3928 30.9643H43.0714V32.25C43.0714 32.4275 42.9275 32.5714 42.75 32.5714C42.693 32.5712 42.6371 32.5558 42.588 32.5269C42.6875 32.47 42.7492 32.3646 42.75 32.25V30.3214C42.75 30.1439 42.6061 30 42.4286 30C42.251 30 42.1071 30.1439 42.1071 30.3214V30.9643H39.2143V32.25C39.2143 32.4275 39.0704 32.5714 38.8928 32.5714C38.8359 32.5712 38.78 32.5558 38.7309 32.5269C38.8303 32.47 38.8921 32.3646 38.8928 32.25V30.3214C38.8928 30.1439 38.7489 30 38.5714 30ZM36 33.8572V37.3929C36 38.2776 36.7224 39 37.6072 39H43.3929C44.2776 39 45 38.2776 45 37.3928V33.8572H36ZM42.1329 34.6839C42.2005 34.6893 42.2646 34.7159 42.3162 34.7599C42.4511 34.8753 42.4668 35.0782 42.3514 35.2131C42.3514 35.2131 42.3514 35.2131 42.3514 35.2131L40.4228 37.4631C40.3074 37.5981 40.1045 37.6139 39.9696 37.4985C39.9542 37.4853 39.9401 37.4708 39.9275 37.455L38.6417 35.8478C38.5308 35.7093 38.5532 35.507 38.6917 35.396C38.6918 35.3959 38.6919 35.3959 38.692 35.3958C38.8305 35.2848 39.0328 35.3072 39.1438 35.4458C39.1438 35.4459 39.1439 35.4459 39.144 35.446L40.1874 36.75L41.8629 34.7951C41.9299 34.7169 42.0303 34.6756 42.1329 34.6839Z" fill="white"/>
<defs>
<linearGradient id="paint0_linear_58_11628" x1="5.25" y1="8.79688" x2="32.5601" y2="31.0985" gradientUnits="userSpaceOnUse">
<stop stop-color="#FFD666"/>
<stop offset="1" stop-color="#FFAB00"/>
</linearGradient>
<linearGradient id="paint1_linear_58_11628" x1="5.25" y1="8.79688" x2="32.5601" y2="31.0985" gradientUnits="userSpaceOnUse">
<stop stop-color="#FFD666"/>
<stop offset="1" stop-color="#FFAB00"/>
</linearGradient>
<linearGradient id="paint2_linear_58_11628" x1="12.9004" y1="6" x2="48.7166" y2="35.2473" gradientUnits="userSpaceOnUse">
<stop stop-color="#C684FF"/>
<stop offset="1" stop-color="#8E33FF"/>
</linearGradient>
<linearGradient id="paint3_linear_58_11628" x1="12.9004" y1="6" x2="48.7166" y2="35.2473" gradientUnits="userSpaceOnUse">
<stop stop-color="#C684FF"/>
<stop offset="1" stop-color="#8E33FF"/>
</linearGradient>
<linearGradient id="paint4_linear_58_11628" x1="12.9004" y1="6" x2="48.7166" y2="35.2473" gradientUnits="userSpaceOnUse">
<stop stop-color="#FFAB00"/>
<stop offset="1" stop-color="#B76E00"/>
</linearGradient>
<linearGradient id="paint5_linear_58_11628" x1="12.9004" y1="6" x2="48.7166" y2="35.2473" gradientUnits="userSpaceOnUse">
<stop stop-color="#FFAB00"/>
<stop offset="1" stop-color="#B76E00"/>
</linearGradient>
<linearGradient id="paint6_linear_58_11628" x1="32" y1="27" x2="48" y2="43" gradientUnits="userSpaceOnUse">
<stop stop-color="#FFD666"/>
<stop offset="1" stop-color="#FFAB00"/>
</linearGradient>
</defs>
</svg>
